<svg width="22" height="22" viewBox="0 0 22 22" fill="none" xmlns="http://www.w3.org/2000/svg">
<path d="M8 17.4167C3 18.7917 3 15.125 1 14.6667M15 20.1667V16.6192C15.0375 16.1821 14.9731 15.7426 14.811 15.3301C14.6489 14.9176 14.3929 14.5415 14.06 14.2267C17.2 13.9058 20.5 12.815 20.5 7.80998C20.4997 6.53016 19.9627 5.29942 19 4.37248C19.4559 3.25278 19.4236 2.01514 18.91 0.91665C18.91 0.91665 17.73 0.595817 15 2.27332C12.708 1.7039 10.292 1.7039 8 2.27332C5.27 0.595817 4.09 0.91665 4.09 0.91665C3.57638 2.01514 3.54414 3.25278 4 4.37248C3.03013 5.30629 2.49252 6.54816 2.5 7.83748C2.5 12.8058 5.8 13.8967 8.94 14.2542C8.611 14.5658 8.35726 14.9374 8.19531 15.3449C8.03335 15.7524 7.96681 16.1865 8 16.6192V20.1667" stroke="white" stroke-opacity="0.6" stroke-width="2" stroke-linecap="round" stroke-linejoin="round"/>
</svg>
